<svg xmlns="http://www.w3.org/2000/svg" xmlns:xlink="http://www.w3.org/1999/xlink" width="500" zoomAndPan="magnify" viewBox="0 0 375 374.999991" height="500" preserveAspectRatio="xMidYMid meet" version="1.0"><defs><g/></defs><rect x="-37.5" width="450" fill="#ffffff" y="-37.499999" height="449.999989" fill-opacity="1"/><rect x="-37.5" width="450" fill="#000000" y="-37.499999" height="449.999989" fill-opacity="1"/><rect x="-37.5" width="450" fill="#ffffff" y="-37.499999" height="449.999989" fill-opacity="1"/><rect x="-37.5" width="450" fill="#000000" y="-37.499999" height="449.999989" fill-opacity="1"/><g fill="#ffffff" fill-opacity="1"><g transform="translate(155.268422, 212.639766)"><g><path d="M 59.3125 -41.3125 C 62.878906 -54.53125 66.53125 -67.664062 70.183594 -80.796875 C 70.707031 -82.707031 71.226562 -84.535156 71.402344 -86.535156 C 68.621094 -87.664062 67.664062 -87.492188 66.707031 -85.40625 C 65.140625 -81.492188 63.488281 -77.578125 62.359375 -73.488281 C 58.964844 -61.75 55.835938 -50.007812 52.617188 -38.265625 C 52.269531 -36.960938 51.921875 -35.746094 51.574219 -34.699219 C 50.878906 -34.351562 50.53125 -34.179688 50.183594 -34.09375 C 41.484375 -31.832031 32.789062 -29.570312 24.003906 -27.394531 C 23.480469 -27.222656 22.785156 -27.394531 21.917969 -27.394531 C 22.785156 -30.699219 23.480469 -33.832031 24.265625 -36.875 C 25.046875 -39.917969 25.832031 -43.050781 26.613281 -46.09375 C 27.308594 -49.226562 28.089844 -52.269531 28.875 -55.398438 C 29.570312 -58.445312 30.789062 -61.402344 30.875 -64.53125 C 28.699219 -65.402344 28.179688 -65.488281 27.308594 -65.140625 C 26.089844 -64.707031 25.394531 -63.75 25.046875 -62.617188 C 24.351562 -60.707031 23.65625 -58.878906 23.132812 -56.964844 C 21.21875 -49.660156 19.394531 -42.355469 17.566406 -35.050781 C 16.699219 -31.570312 15.828125 -28.089844 15.046875 -24.613281 C 12.523438 -23.65625 10.089844 -22.785156 7.828125 -21.742188 C 5.566406 -20.613281 2.78125 -20.089844 1.390625 -17.132812 C 2.175781 -16.785156 2.957031 -16.175781 3.566406 -16.261719 C 4.957031 -16.351562 6.4375 -16.699219 7.828125 -17.046875 C 9.652344 -17.65625 11.304688 -18.699219 13.566406 -18.871094 C 13.394531 -17.742188 13.304688 -16.785156 13.132812 -15.914062 C 11.652344 -7.828125 10 0.175781 8.523438 8.261719 C 8.175781 10.4375 8.089844 12.699219 8.089844 14.957031 C 8.089844 17.132812 9.132812 17.566406 11.480469 16.523438 C 11.566406 12.523438 18.089844 -14.957031 20.523438 -21.21875 C 20.785156 -21.394531 21.132812 -21.65625 21.480469 -21.742188 C 30.527344 -24.351562 39.570312 -26.960938 48.617188 -29.570312 C 49.050781 -29.65625 49.574219 -29.484375 50.183594 -29.394531 C 50.007812 -28.4375 49.921875 -27.65625 49.746094 -26.875 C 48.441406 -21.480469 47.050781 -16.089844 45.832031 -10.699219 C 43.660156 -1.128906 41.570312 8.4375 39.570312 18.089844 C 39.136719 20.351562 39.136719 22.785156 39.136719 25.132812 C 39.136719 26.265625 39.570312 26.4375 41.570312 26.265625 C 43.917969 16.699219 46.269531 7.042969 48.789062 -2.523438 C 51.3125 -12.261719 53.746094 -22.003906 56.703125 -31.570312 C 59.660156 -32.265625 62.359375 -32.960938 65.140625 -33.570312 C 66.792969 -33.917969 68.445312 -34.265625 70.183594 -33.570312 C 71.402344 -33.136719 72.707031 -33.308594 73.835938 -34.09375 C 74.011719 -35.398438 73.316406 -36.003906 72.445312 -36.351562 C 71.488281 -36.789062 70.359375 -37.136719 69.402344 -37.050781 C 66.878906 -36.960938 64.359375 -36.703125 61.835938 -36.441406 C 60.707031 -36.351562 59.574219 -36.179688 58.183594 -36.09375 C 58.183594 -38.09375 58.878906 -39.746094 59.3125 -41.3125 Z M 59.3125 -41.3125 "/></g></g></g></svg>